<svg viewBox="0 0 95 44" fill="none" xmlns="http://www.w3.org/2000/svg"><g clip-path="url(#a)" fill="#fff"><path d="m1.63 16.24 6.6-.03L14.7 36.2l6.1-20.02 6.8-.02 6.26 19.98 6.3-20.02 6.6-.03-9.31 28.04-7.16.02-6.07-18.86-5.93 18.9-7.16.02-9.5-27.96ZM68.78 44l-23.52.08-.1-28 23.52-.08.02 6-17.12.06.02 5.2 15.12-.05.02 5.6-15.12.05.02 5.2L68.76 38l.02 6Zm16.41-.05-16.8.05-.1-28 16-.05c3.23-.01 5.57.6 7.01 1.82 1.47 1.19 2.21 3.1 2.22 5.75.01 2.74-.81 4.72-2.46 5.93 2.2 1.14 3.3 3.36 3.3 6.67.01 2.72-.71 4.7-2.18 5.96-1.43 1.23-3.76 1.86-6.99 1.87Zm-10.42-5.97 10.4-.03c1.12 0 1.93-.22 2.44-.65.5-.46.75-1.15.75-2.08 0-.94-.26-1.62-.77-2.04-.5-.43-1.32-.64-2.44-.63l-10.4.03.02 5.4Zm-.04-11 9.4-.03c1.18 0 2.03-.2 2.56-.6.56-.41.84-1.05.83-1.93 0-.86-.25-1.48-.76-1.88-.51-.4-1.32-.6-2.44-.6l-9.6.04.01 5ZM.7 8.72l2.45-.01c.15.52.48.9 1 1.15.5.24 1.25.35 2.22.35 1.8 0 2.7-.41 2.7-1.22 0-.38-.24-.7-.72-.93a9.96 9.96 0 0 0-2.5-.65c-1.9-.34-3.21-.76-3.93-1.27C1.22 5.63.86 4.85.86 3.82c0-1.21.4-2.1 1.21-2.67C2.9.57 4.15.27 5.87.27c1.66 0 2.91.28 3.75.87.84.57 1.36 1.53 1.54 2.87h-2.5a1.6 1.6 0 0 0-.89-1.15 4.47 4.47 0 0 0-2.05-.37c-1.7.01-2.54.4-2.53 1.19 0 .35.21.63.65.84.44.22 1.24.43 2.4.64 1.97.36 3.32.8 4.06 1.31.74.52 1.11 1.3 1.11 2.35 0 1.22-.42 2.13-1.28 2.74-.86.59-2.18.89-3.97.9-1.73 0-3.02-.29-3.88-.88C1.4 11 .89 10.04.7 8.72ZM17.24 2.6V.36L28.87.33v2.24l-4.62.01.03 9.66h-2.4l-.03-9.65-4.62.02ZM35.63.3l2.4-.02.02 6.53c0 1.15.27 1.98.8 2.5.54.52 1.4.78 2.56.77 1.17 0 2-.27 2.53-.79.53-.52.8-1.36.79-2.5L44.7.27h2.4l.02 6.7c0 1.88-.45 3.24-1.35 4.1-.9.84-2.36 1.26-4.36 1.27-2.01 0-3.47-.41-4.4-1.25-.9-.84-1.36-2.2-1.37-4.07L35.63.3Zm18.98 11.83L54.57.24l5.06-.02c2.13 0 3.68.46 4.65 1.4.97.93 1.47 2.45 1.47 4.53.01 2.09-.47 3.6-1.44 4.55-.96.94-2.5 1.41-4.64 1.42l-5.06.02Zm2.38-2.25 2.59-.01c1.34 0 2.3-.3 2.9-.88.6-.59.9-1.54.9-2.84-.01-1.3-.31-2.24-.92-2.82-.6-.59-1.57-.88-2.9-.87h-2.59l.02 7.42Zm16 2.19L72.95.18l2.4-.01.04 11.9h-2.4ZM88.66-.02c2.13-.02 3.68.46 4.65 1.42.98.96 1.47 2.51 1.48 4.65 0 2.13-.48 3.69-1.45 4.67-.96.96-2.5 1.45-4.64 1.46-2.14 0-3.7-.47-4.66-1.43-.96-.97-1.45-2.52-1.46-4.65 0-2.15.47-3.7 1.43-4.67.96-.96 2.51-1.45 4.65-1.46Zm-2.82 3.16c-.6.62-.88 1.6-.88 2.95s.3 2.33.9 2.94c.59.6 1.53.9 2.84.9 1.3 0 2.25-.31 2.83-.92.59-.62.88-1.6.88-2.95s-.3-2.33-.9-2.94c-.59-.62-1.54-.93-2.84-.92-1.3 0-2.25.32-2.83.94Z"/></g><defs><clipPath id="a"><path fill="#fff" d="M0 0h95v44H0z"/></clipPath></defs></svg>
