<svg viewBox="0 0 47 29" fill="none" xmlns="http://www.w3.org/2000/svg">
<path d="M0.53125 0.335938V28.6641H14.2168C15.4849 28.6641 24.2178 28.4069 24.2178 20.4336C24.2178 15.451 20.7904 13.7583 19.0498 13.2559C20.3298 12.6517 22.8779 11.2162 22.8779 7.37012C22.8779 5.22876 22.5729 0.335938 13.834 0.335938H0.53125ZM31.7305 2.96777V5.55176H42.3057V2.96777H31.7305ZM6.75195 5.16895H12.5898C13.1401 5.16895 16.8486 4.87585 16.8486 8.42285C16.8486 11.4554 14.1689 11.7725 13.0684 11.7725H6.75195V5.16895ZM37.2812 7.89648C29.2841 7.89648 27.6152 14.8409 27.6152 17.8496C27.6152 26.7799 34.9365 27.8027 37.2812 27.8027C43.6036 27.8027 45.3981 23.7114 46.1338 21.4385H41.54C41.3606 22.0247 40.0208 23.9268 37.4727 23.9268C33.2019 23.9268 32.8311 20.5891 32.8311 19.0938H46.4209C46.696 13.9258 44.4351 7.89648 37.2812 7.89648ZM37.1377 11.7725C38.4117 11.7725 39.4406 12.1433 40.0566 12.8252C40.6727 13.5131 41.1273 14.5179 41.2529 15.8398H32.8311C32.855 15.475 32.9387 15.0563 33.0703 14.5957C33.2019 14.1232 33.4053 13.6746 33.7402 13.2559C34.0752 12.8431 34.5417 12.4843 35.0801 12.2031C35.6304 11.916 36.3123 11.7725 37.1377 11.7725ZM6.75195 16.0312H13.499C14.8389 16.0312 17.9971 16.2406 17.9971 20.0986C17.9971 23.837 14.0194 23.8311 13.4033 23.8311H6.75195V16.0312Z" fill="#000000"/>
</svg>
