<svg viewBox="0 0 43 34" fill="none" xmlns="http://www.w3.org/2000/svg">
<path d="M8.95514 7.10933C8.48062 6.86944 7.90668 6.88144 7.44398 7.14088C6.98128 7.40034 6.69794 7.86904 6.69794 8.375V26.5834C6.69794 27.3773 7.38351 28.0209 8.22919 28.0209C9.07487 28.0209 9.76044 27.3773 9.76044 26.5834V10.7817L20.774 16.349C21.2273 16.5782 21.7728 16.5782 22.226 16.349L33.2396 10.7817V26.5834C33.2396 27.3773 33.9252 28.0209 34.7709 28.0209C35.6165 28.0209 36.3021 27.3773 36.3021 26.5834V8.375C36.3021 7.86904 36.0187 7.40034 35.5561 7.14088C35.0934 6.88144 34.5195 6.86944 34.0448 7.10933L21.5 13.4508L8.95514 7.10933Z" fill="#000000"/>
<path fill-rule="evenodd" clip-rule="evenodd" d="M32.3425 1.13333C25.1287 0.527821 17.8716 0.527821 10.6576 1.13333L7.55968 1.39337C4.23665 1.6723 1.55171 4.05552 1.06908 7.15462C0.0523311 13.6835 0.0523311 20.3163 1.06908 26.845C1.55171 29.9441 4.23665 32.3273 7.55968 32.6063L10.6576 32.8662C17.8716 33.4719 25.1287 33.4719 32.3425 32.8662L35.4403 32.6063C38.7635 32.3273 41.4483 29.9441 41.931 26.845C42.9477 20.3163 42.9477 13.6835 41.931 7.15462C41.4483 4.05552 38.7635 1.6723 35.4403 1.39337L32.3425 1.13333ZM10.9303 3.99691C17.9628 3.40663 25.0372 3.40663 32.0697 3.99691L35.1678 4.25695C37.079 4.41737 38.6231 5.78807 38.9007 7.57052C39.8746 13.8234 39.8746 20.1762 38.9007 26.4291C38.6231 28.2116 37.079 29.5822 35.1678 29.7427L32.0697 30.0027C25.0372 30.5931 17.9628 30.5931 10.9303 30.0027L7.83243 29.7427C5.92118 29.5822 4.37695 28.2116 4.09936 26.4291C3.12557 20.1762 3.12557 13.8234 4.09936 7.57052C4.37695 5.78807 5.92118 4.41737 7.83243 4.25695L10.9303 3.99691Z" fill="#000000"/>
</svg>
