<svg viewBox="0 0 50 37" fill="none" xmlns="http://www.w3.org/2000/svg">
<path d="M38.0752 16.4692C41.7088 16.4692 44.6544 13.4463 44.6544 9.71728C44.6544 5.98828 41.7088 2.96533 38.0752 2.96533C34.4416 2.96533 31.496 5.98828 31.496 9.71728C31.496 13.4463 34.4416 16.4692 38.0752 16.4692Z" fill="#000000"/>
<path d="M15.014 21.5918C6.722 21.5918 0 28.4903 0 37.0001H30.0281C30.0281 28.4903 23.3061 21.5918 15.014 21.5918Z" fill="#000000"/>
<path d="M38.0752 21.0586C34.9767 21.0586 32.1559 22.2729 30.0363 24.2616C32.1547 26.8832 33.5648 29.9779 34.167 33.2965H50C50 26.5376 44.661 21.0586 38.0752 21.0586Z" fill="#000000"/>
<path d="M15.014 17.0024C19.589 17.0024 23.2977 13.1963 23.2977 8.50121C23.2977 3.80612 19.589 0 15.014 0C10.4391 0 6.73035 3.80612 6.73035 8.50121C6.73035 13.1963 10.4391 17.0024 15.014 17.0024Z" fill="#000000"/>
</svg>
