<svg viewBox="0 0 69 43" fill="none" xmlns="http://www.w3.org/2000/svg">
<path d="M67.4386 2.95617C66.6622 5.51197 65.6156 7.73663 64.3043 9.75658L64.359 9.66627C63.0708 11.914 61.5324 14.5109 59.7438 17.4571C58.2102 19.7831 57.3984 20.9872 57.3083 21.0695C56.9115 21.5903 56.6354 22.2285 56.5405 22.9299L56.5377 22.951C56.6153 23.5892 56.8971 24.1461 57.3083 24.5615L58.4585 25.9042C64.612 32.5249 68.0731 37.0887 68.8419 39.5953C68.9425 39.8722 69 40.1913 69 40.5255C69 41.1095 68.8217 41.6483 68.5198 42.0909L68.5255 42.0818C68.0195 42.6267 67.3121 42.9639 66.53 42.9639C66.4437 42.9639 66.3546 42.9609 66.2712 42.9518H66.2827H58.7173C58.7144 42.9518 58.7087 42.9518 58.7029 42.9518C57.7339 42.9518 56.8425 42.5966 56.1437 42.0066L56.1524 42.0126C55.1344 41.1366 54.2287 40.1883 53.4178 39.1588L53.3919 39.1227C52.0673 37.5553 50.8921 36.2357 49.8666 35.164C46.4505 31.7643 43.9297 30.0645 42.3041 30.0645C42.2437 30.0585 42.1747 30.0554 42.1028 30.0554C41.6283 30.0554 41.1855 30.209 40.8203 30.4709L40.8289 30.4649C40.5299 30.8562 40.3487 31.3619 40.3487 31.9068C40.3487 32.0152 40.3545 32.1175 40.3689 32.2229V32.2109C40.2912 33.1561 40.2452 34.2549 40.2452 35.3657C40.2452 35.724 40.251 36.0792 40.2596 36.4344V36.3832V39.8722C40.2883 40.0137 40.3056 40.1763 40.3056 40.3418C40.3056 41.0704 39.9893 41.7206 39.4947 42.1511L39.4918 42.1541C38.379 42.6869 37.0793 43 35.7077 43C35.4144 43 35.1269 42.9849 34.8422 42.9579L34.8796 42.9609C30.3536 42.8706 26.1554 41.4828 22.5869 39.1437L22.6875 39.2039C18.3427 36.4404 14.7426 32.843 11.9994 28.5924L11.9217 28.466C9.31655 24.8475 6.88677 20.7595 4.81643 16.4486L4.61514 15.985C3.40457 13.5707 2.15086 10.6025 1.06968 7.54999L0.89715 6.99307C0.457201 5.62034 0.138023 4.02485 0.00575096 2.37216L0 2.29691C0 0.77567 0.854976 0.0150522 2.56493 0.0150522H10.1274C10.1964 0.00903143 10.277 0.00602029 10.3604 0.00602029C11.0735 0.00602029 11.732 0.261901 12.2524 0.692383L12.2467 0.686363C12.8218 1.34563 13.2473 2.15542 13.4572 3.05853L13.4659 3.09465C14.8576 7.20981 16.3327 10.6657 18.0293 13.9771L17.8366 13.5647C19.2226 16.4847 20.7552 18.9984 22.5035 21.3194L22.4374 21.2261C23.971 23.1968 25.1672 24.1822 26.026 24.1822C26.0518 24.1852 26.0835 24.1852 26.118 24.1852C26.5435 24.1852 26.9145 23.9444 27.1158 23.5832L27.1186 23.5771C27.3314 23.0052 27.4551 22.3399 27.4551 21.6475C27.4551 21.5 27.4493 21.3525 27.4378 21.208V21.2261V9.54887C27.3774 8.17313 27.0554 6.88771 26.5177 5.73474L26.5407 5.79193C26.1841 4.9972 25.7557 4.31084 25.2467 3.69973L25.2553 3.71177C24.7838 3.21808 24.4617 2.57085 24.3611 1.84836L24.3582 1.8303C24.3582 1.31854 24.5825 0.857953 24.9333 0.556917L24.9362 0.553907C25.2841 0.219756 25.7499 0.0180623 26.2589 0.0180623H26.2819H38.2036C38.2669 0.00903121 38.3388 0.00602029 38.4135 0.00602029C38.9742 0.00602029 39.4775 0.270933 39.811 0.686363L39.8139 0.689373C40.1101 1.25532 40.2855 1.93265 40.2855 2.64912C40.2855 2.76351 40.2797 2.8749 40.2711 2.98628V2.97123V18.5438C40.2653 18.6161 40.2625 18.7004 40.2625 18.7847C40.2625 19.3386 40.4091 19.8594 40.6622 20.3019L40.6564 20.2898C40.8663 20.615 41.2171 20.8257 41.6139 20.8257H41.6168C42.1229 20.7896 42.583 20.615 42.9712 20.338L42.9625 20.344C43.7447 19.7811 44.4175 19.1399 45.0012 18.4144L45.0127 18.3993C46.7582 16.3342 48.3684 14.0524 49.7717 11.626L49.8838 11.4153C50.873 9.69938 51.9427 7.58611 52.9117 5.41564L53.09 4.97312L54.3724 2.28787C54.8181 0.945253 56.0143 0 57.4204 0C57.4751 0 57.5297 -2.18332e-07 57.5843 0.00301014H57.5757H65.1411C67.1846 0.00301014 67.9514 0.987398 67.4415 2.95617H67.4386Z" fill="#000000"/>
</svg>
