<svg viewBox="0 0 143 187" fill="none" xmlns="http://www.w3.org/2000/svg">
<path d="M119.591 64.4791L97.721 35.8342C95.4148 32.8107 91.8672 31.0414 88.1127 31.0414H54.316C50.5615 31.0414 47.0139 32.8107 44.7076 35.8342L22.8377 64.4791C24.3529 87.3939 35.1601 106.503 52.959 114.226V114.22C58.5025 116.616 64.6181 117.957 71.2143 117.957C77.8106 117.957 83.9261 116.616 89.4696 114.214V114.22C107.269 106.503 118.07 87.3939 119.591 64.4791ZM52.959 80.7076C49.6 80.7076 46.8739 77.9263 46.8739 74.4993C46.8739 71.0723 49.6 68.291 52.959 68.291C56.318 68.291 59.0441 71.0723 59.0441 74.4993C59.0441 77.9263 56.318 80.7076 52.959 80.7076ZM89.4696 80.7076C86.1107 80.7076 83.3845 77.9263 83.3845 74.4993C83.3845 71.0723 86.1107 68.291 89.4696 68.291C92.8286 68.291 95.5547 71.0723 95.5547 74.4993C95.5547 77.9263 92.8286 80.7076 89.4696 80.7076ZM22.5335 54.7694V24.8331C22.5335 11.119 33.4319 0 46.8739 0H95.5547C108.997 0 119.895 11.119 119.895 24.8331V54.7694L102.522 32.0223C99.0659 27.484 93.7475 24.8331 88.1127 24.8331H54.3099C48.6751 24.8331 43.3567 27.484 39.9004 32.0223L22.5335 54.7694ZM142.489 171.193L140.432 161.539C138.783 152.308 132.303 144.901 123.674 142.269L94.855 131.553L89.6218 136.172C84.5042 140.711 77.9323 143.219 71.117 143.219C64.326 143.219 57.7784 140.729 52.673 136.197L47.4885 131.628L18.9493 142.207C10.1442 144.907 3.6453 152.314 2.00232 161.552L0.201128 171.609C-1.16194 179.233 4.57632 186.248 12.1705 186.248H130.593C138.357 186.248 144.138 178.935 142.489 171.193ZM119.895 167.623C119.895 171.05 117.169 173.832 113.81 173.832H95.5547C92.1958 173.832 89.4696 171.05 89.4696 167.623V161.415C89.4696 157.988 92.1958 155.207 95.5547 155.207H113.81C117.169 155.207 119.895 157.988 119.895 161.415V167.623ZM71.2143 124.165C77.7436 124.165 83.847 123.017 89.4696 120.943V128.095L85.636 131.485C77.6159 138.594 64.6789 138.612 56.6648 131.51L52.959 128.244V120.95C58.5816 123.017 64.685 124.165 71.2143 124.165ZM95.5547 161.415H113.81V167.623H95.5547V161.415Z" fill="url(#paint0_linear_5156_46)"/>
<defs>
<linearGradient id="paint0_linear_5156_46" x1="-37.1474" y1="22.7917" x2="107.853" y2="185.792" gradientUnits="userSpaceOnUse">
<stop stop-color="#414141"/>
<stop offset="1" stop-color="#262626"/>
</linearGradient>
</defs>
</svg>
