<svg viewBox="0 0 221 187" fill="none" xmlns="http://www.w3.org/2000/svg"><path d="M138.2 50.93c-15.27-9.37-39.95-9.37-55.13 0-15.19 9.37-15.1 24.6.18 33.97 15.27 9.38 39.95 9.38 55.13 0 15.19-9.41 15.1-24.6-.18-33.97Zm-7 14.75c-1.31.43-2.62.91-3.93 1.35-.82.24-1.31.29-1.67.1a2.4 2.4 0 0 1-.55-.63 10.86 10.86 0 0 0-3.93-3.85c-.23-.14-.5-.28-.77-.43a7.29 7.29 0 0 0-1.85-.77c-2.53-.62-4.8.39-4.47 2.07a6.3 6.3 0 0 0 1.13 2.45c.9 1.35 1.9 2.7 2.53 4.13 2.12 4.52-2.49 8.99-9.9 9.42-2.67.15-5.2-.19-7.55-1-1.04-.34-1.8-.34-2.57.23-.77.53-1.63 1.01-2.45 1.5-.72.43-1.49.47-2.21.04-.54-.29-1.04-.62-1.58-.91-.36-.24-.72-.43-1.09-.67-.76-.49-.67-.97.05-1.45.59-.38 1.17-.72 1.72-1.1 1.3-.82 1.3-.87.22-1.78a14.77 14.77 0 0 1-3.34-3.7c-.59-1.06-.45-1.3 1.13-1.87 1.17-.39 2.3-.82 3.48-1.2.86-.3 1.35-.34 1.72-.15.22.14.36.34.54.67a13.48 13.48 0 0 0 3.66 4.18c.27.24.59.44.86.63.86.53 1.85.91 2.98 1.2 2.94.72 5.56-.53 5.29-2.5a4.54 4.54 0 0 0-.82-1.87c-.99-1.59-2.3-3.08-2.98-4.76-1.08-2.7-.59-5.14 2.9-7.07 3.97-2.16 8.4-2.3 13.1-.96 1.94.58 1.9.58 3.39-.33.5-.34 1-.63 1.5-.92 1.12-.67 1.53-.67 2.66 0 .36.2.67.44 1.04.63 2.4 1.44 2.4 1.44.04 2.93-1.67 1.01-1.67 1.01-.27 2.21 1.08.91 1.94 1.88 2.58 2.93.5.53.31.96-.6 1.25Zm27.39 31.62c-4.2 2.6-11.03 2.6-15.28 0-4.2-2.6-4.25-6.82-.04-9.42 4.2-2.6 11.02-2.6 15.27 0s4.3 6.83.05 9.42ZM78.14 47.9c-4.2 2.6-11.03 2.6-15.27 0-4.25-2.6-4.25-6.82-.05-9.42 4.2-2.6 11.03-2.6 15.28 0 4.2 2.6 4.24 6.83.04 9.42Zm137.62 29.27L95.32 3.2c-6.96-4.28-18.26-4.28-25.18 0L5.56 43.1c-6.91 4.27-6.87 11.24.09 15.52l120.44 73.96c6.96 4.27 18.26 4.27 25.17 0l64.54-39.89c6.96-4.28 6.92-11.25-.04-15.52Zm-63.18 41.33a15.16 15.16 0 0 0-2.76-2.17c-7.05-4.32-18.48-4.32-25.49 0-.54.34-1 .68-1.5 1.06l-93.5-57.43c.9-.38 1.76-.81 2.58-1.3 7-4.32 6.96-11.34-.1-15.66-.76-.48-1.57-.91-2.43-1.25L67.93 17.9c.59.53 1.26 1.01 2.03 1.5 7.05 4.32 18.49 4.32 25.5 0 .8-.49 1.48-1.02 2.11-1.6L191.4 75.4c-1.27.48-2.4 1-3.48 1.68-7 4.33-7 11.4.09 15.72 1.08.67 2.3 1.2 3.57 1.68l-39 24.03ZM2.48 73.42c3.08-1.68 7.83-1.44 10.76.38l125.91 77.28 68.07-42.1c2.93-1.83 7.77-1.83 10.75 0 2.99 1.83 2.99 4.8.05 6.63l-72.36 44.7c-3.52 2.2-9.3 2.2-12.88 0l-2.53-1.54-1.76-1.1L2.26 80.2c-3.07-1.88-3.03-5 .23-6.78Zm215.63 66.37-72.36 44.69c-3.52 2.2-9.3 2.2-12.88 0l-2.48-1.54-1.81-1.1L2.35 104.37c-3.07-1.88-2.98-5 .27-6.78 3.03-1.68 7.82-1.44 10.76.39l125.86 77.27 68.07-42.05c2.98-1.82 7.77-1.82 10.75 0 2.98 1.78 3.03 4.76.05 6.59Z" fill="url(#a)"/><defs><linearGradient id="a" x1="19" y1="42.57" x2="183" y2="172.57" gradientUnits="userSpaceOnUse"><stop stop-color="#5577CD"/><stop offset="1" stop-color="#5577CD"/></linearGradient></defs></svg>
