<svg width="70" height="70" viewBox="0 0 70 70" fill="none" xmlns="http://www.w3.org/2000/svg"><g clip-path="url(#a)"><g filter="url(#b)"><rect x="5" y="5" width="60" height="60" rx="30" fill="url(#c)"/><rect x="5.75" y="5.75" width="58.5" height="58.5" rx="29.25" stroke="#2EECC5" stroke-opacity=".5" stroke-width="1.5"/></g><g filter="url(#d)"><rect x=".75" y=".75" width="68.5" height="68.5" rx="34.25" stroke="#153630" stroke-width="1.5" shape-rendering="crispEdges"/></g><path d="M26.94 33.94a1.5 1.5 0 0 0 0 2.12l9.55 9.55a1.5 1.5 0 1 0 2.12-2.12L30.12 35l8.49-8.49a1.5 1.5 0 1 0-2.12-2.12l-9.55 9.55ZM29 33.5h-1v3h1v-3Z" fill="#2C8E7A"/></g><defs><filter id="b" x="-101" y="-101" width="272" height="272" filterUnits="userSpaceOnUse" color-interpolation-filters="sRGB"><feFlood flood-opacity="0" result="BackgroundImageFix"/><feColorMatrix in="SourceAlpha" values="0 0 0 0 0 0 0 0 0 0 0 0 0 0 0 0 0 0 127 0" result="hardAlpha"/><feOffset/><feGaussianBlur stdDeviation="53"/><feComposite in2="hardAlpha" operator="out"/><feColorMatrix values="0 0 0 0 0.180392 0 0 0 0 0.92549 0 0 0 0 0.772549 0 0 0 0.1 0"/><feBlend in2="BackgroundImageFix" result="effect1_dropShadow_5275_37"/><feBlend in="SourceGraphic" in2="effect1_dropShadow_5275_37" result="shape"/></filter><filter id="d" x="-106" y="-106" width="282" height="282" filterUnits="userSpaceOnUse" color-interpolation-filters="sRGB"><feFlood flood-opacity="0" result="BackgroundImageFix"/><feColorMatrix in="SourceAlpha" values="0 0 0 0 0 0 0 0 0 0 0 0 0 0 0 0 0 0 127 0" result="hardAlpha"/><feOffset/><feGaussianBlur stdDeviation="53"/><feComposite in2="hardAlpha" operator="out"/><feColorMatrix values="0 0 0 0 0.180392 0 0 0 0 0.92549 0 0 0 0 0.772549 0 0 0 0.1 0"/><feBlend in2="BackgroundImageFix" result="effect1_dropShadow_5275_37"/><feBlend in="SourceGraphic" in2="effect1_dropShadow_5275_37" result="shape"/></filter><linearGradient id="c" x1="22" y1="13" x2="35" y2="65" gradientUnits="userSpaceOnUse"><stop stop-color="#19201F"/><stop offset="1" stop-color="#323939"/></linearGradient><clipPath id="a"><path fill="#fff" d="M0 0h70v70H0z"/></clipPath></defs></svg>
