<svg viewBox="0 0 193 189" fill="none" xmlns="http://www.w3.org/2000/svg"><g clip-path="url(#a)"><path fill-rule="evenodd" clip-rule="evenodd" d="M171.29 75.43C171.29 32.97 137.66 0 96.33 0 55 0 21.37 32.97 21.37 73.5 8.92 79.77-.04 91.3-.04 105v21a31.2 31.2 0 0 0 9.4 22.27 32.45 32.45 0 0 0 22.72 9.23h10.7c2.85 0 5.57-1.1 7.58-3.07A10.4 10.4 0 0 0 53.5 147V84a10.4 10.4 0 0 0-3.14-7.42c-2-1.97-4.73-3.08-7.57-3.08a51.99 51.99 0 0 1 15.68-37.12A54.08 54.08 0 0 1 96.33 21c14.2 0 27.82 5.53 37.86 15.38a51.99 51.99 0 0 1 15.68 37.12c-2.84 0-5.56 1.1-7.57 3.08a10.4 10.4 0 0 0-3.14 7.42v63a10.4 10.4 0 0 0 3.14 7.43c2 1.96 4.73 3.07 7.57 3.07V168h-27.76a16 16 0 0 0-15.07-10.5H85.62c-4.26 0-8.34 1.66-11.36 4.61a15.6 15.6 0 0 0-4.7 11.14c0 4.18 1.7 8.18 4.7 11.14A16.22 16.22 0 0 0 85.62 189h64.25c5.68 0 11.13-2.21 15.14-6.15A20.8 20.8 0 0 0 171.3 168v-12.42a31.99 31.99 0 0 0 15.5-11.45A31 31 0 0 0 192.7 126v-21a30.99 30.99 0 0 0-5.91-18.12 31.97 31.97 0 0 0-15.5-11.45L-75 651Z" fill="url(#b)"/></g><defs><linearGradient id="b" x1="34.61" y1="40.58" x2="153.8" y2="193.82" gradientUnits="userSpaceOnUse"><stop stop-color="#3C3C3C"/><stop offset="1" stop-color="#262626"/></linearGradient><clipPath id="a"><path fill="#fff" d="M0 0h193v189H0z"/></clipPath></defs></svg>
