<svg viewBox="0 0 209 212" fill="none" xmlns="http://www.w3.org/2000/svg">
<path d="M104.5 0C83.8319 0 63.6279 6.21679 46.443 17.8642C29.258 29.5117 15.864 46.0666 7.95464 65.4356C0.0452781 84.8045 -2.02417 106.118 2.00799 126.68C6.04014 147.242 15.9928 166.129 30.6074 180.953C45.222 195.778 63.8421 205.873 84.1131 209.963C104.384 214.053 125.396 211.954 144.49 203.931C163.585 195.908 179.906 182.322 191.389 164.89C202.871 147.459 209 126.965 209 106C209 77.8871 197.99 50.9255 178.393 31.0467C158.795 11.1678 132.215 0 104.5 0ZM104.5 185.5C88.9989 185.5 73.8459 180.837 60.9572 172.102C48.0685 163.366 38.023 150.95 32.091 136.423C26.159 121.897 24.6069 105.912 27.631 90.4903C30.6551 75.0688 38.1196 60.9033 49.0806 49.785C60.0415 38.6667 74.0066 31.0951 89.2098 28.0276C104.413 24.96 120.172 26.5344 134.493 32.5516C148.814 38.5687 161.055 48.7585 169.666 61.8322C178.278 74.9059 182.875 90.2764 182.875 106C182.853 127.078 174.588 147.286 159.895 162.19C145.201 177.094 125.279 185.477 104.5 185.5Z" fill="url(#paint0_linear_5156_42)"/>
<path d="M130.756 106H111.031C109.299 106 107.638 105.302 106.413 104.06C105.188 102.817 104.5 101.132 104.5 99.375V79.3675C104.501 77.6446 104.167 75.9385 103.517 74.3466C102.868 72.7547 101.915 71.3083 100.714 70.0901C99.5132 68.8718 98.0873 67.9056 96.518 67.2467C94.9486 66.5878 93.2666 66.2491 91.5681 66.25H91.3069C89.6084 66.2491 87.9264 66.5878 86.357 67.2467C84.7877 67.9056 83.3618 68.8718 82.1607 70.0901C80.9597 71.3083 80.0072 72.7547 79.3576 74.3466C78.708 75.9385 78.3741 77.6446 78.375 79.3675V119.383C78.3741 121.105 78.708 122.811 79.3576 124.403C80.0072 125.995 80.9597 127.442 82.1607 128.66C83.3618 129.878 84.7877 130.844 86.357 131.503C87.9264 132.162 89.6084 132.501 91.3069 132.5H130.756C132.454 132.501 134.136 132.162 135.705 131.503C137.275 130.844 138.701 129.878 139.902 128.66C141.103 127.442 142.055 125.995 142.705 124.403C143.354 122.811 143.688 121.105 143.688 119.383V119.118C143.688 117.395 143.354 115.689 142.705 114.097C142.055 112.505 141.103 111.058 139.902 109.84C138.701 108.622 137.275 107.656 135.705 106.997C134.136 106.338 132.454 105.999 130.756 106Z" fill="url(#paint1_linear_5156_42)"/>
<defs>
<linearGradient id="paint0_linear_5156_42" x1="38" y1="29" x2="178" y2="175" gradientUnits="userSpaceOnUse">
<stop stop-color="#414141"/>
<stop offset="0.728332" stop-color="#262626"/>
</linearGradient>
<linearGradient id="paint1_linear_5156_42" x1="78" y1="66" x2="137" y2="139" gradientUnits="userSpaceOnUse">
<stop stop-color="#404040"/>
<stop offset="1" stop-color="#282828"/>
</linearGradient>
</defs>
</svg>
